<svg xmlns="http://www.w3.org/2000/svg" width="66" height="66" viewBox="0 0 66 66">
    <g fill="#00B4C5" fill-rule="evenodd">
        <path d="M62.595 33.03c-.12 15.85-12.799 29.016-28.662 29.611C18.12 63.235 4.47 50.63 3.41 34.938 2.344 19.174 14.449 5.061 30.122 3.528c15.697-1.535 30.244 10.07 32.246 25.712.161 1.256.217 2.523.227 3.79.016 2.195 3.422 2.196 3.405 0C65.883 17.456 54.814 3.778 39.513.647 24.228-2.481 8.428 6 2.471 20.379c-6.038 14.574-.66 31.455 12.316 40.223 13.019 8.797 30.947 6.53 41.853-4.533 6.02-6.108 9.296-14.504 9.36-23.039.016-2.199-3.389-2.198-3.405 0z"/>
        <path d="M14.855 34.523H52.16a1.528 1.528 0 0 0 0-3.046H14.855a1.528 1.528 0 0 0 0 3.046z"/>
        <path d="M34.523 52.16V14.855a1.528 1.528 0 0 0-3.046 0V52.16a1.528 1.528 0 0 0 3.046 0z"/>
    </g>
</svg>
